<?xml version="1.0" standalone="no"?>
<!DOCTYPE svg PUBLIC "-//W3C//DTD SVG 20010904//EN"
 "http://www.w3.org/TR/2001/REC-SVG-20010904/DTD/svg10.dtd">
<svg version="1.0" xmlns="http://www.w3.org/2000/svg"
 width="154.000000pt" height="154.000000pt" viewBox="0 0 154.000000 154.000000"
 preserveAspectRatio="xMidYMid meet">
<metadata>
Created by potrace 1.11, written by Peter Selinger 2001-2013
</metadata>
<g transform="translate(0.000000,154.000000) scale(0.100000,-0.100000)"
fill="#000000" stroke="none">
<path d="M41 1132 l-41 -38 0 -312 c0 -201 4 -312 10 -312 6 0 10 -7 10 -15 0
-8 5 -15 11 -15 5 0 7 -6 3 -12 -4 -7 -4 -10 0 -6 5 4 17 -1 28 -12 11 -10 29
-20 41 -22 12 -2 317 -3 678 -3 501 0 660 3 671 13 8 6 17 9 21 6 3 -3 10 4
17 15 6 12 15 19 21 16 5 -4 9 3 9 14 0 27 -2 27 -39 -8 l-32 -30 -266 2 -266
2 -3 34 c-2 19 -6 37 -11 40 -4 3 -9 15 -11 26 -5 34 -63 80 -104 83 -56 5
-89 -17 -124 -82 -12 -21 -12 -26 -2 -21 8 4 7 1 -2 -7 -8 -7 -16 -24 -16 -38
-1 -14 -2 -28 -3 -31 0 -4 -125 -7 -277 -7 -241 0 -279 2 -296 17 -44 37 -46
51 -45 359 1 187 -2 294 -8 296 -5 3 -2 5 8 5 9 1 17 7 17 15 0 8 9 18 20 21
11 3 20 10 20 14 0 5 310 8 690 8 379 0 687 -3 685 -7 -3 -4 4 -10 14 -13 11
-2 24 -14 30 -26 11 -21 10 -21 -69 -21 -61 0 -81 -3 -77 -12 2 -7 18 -13 35
-12 30 0 32 -2 32 -38 0 -37 -1 -38 -35 -38 -31 0 -35 3 -34 23 6 62 -16 82
-23 22 -6 -55 17 -69 110 -70 l77 0 1 -240 c1 -169 4 -240 13 -243 8 -3 11 78
11 306 l0 309 -41 41 -41 42 -688 0 -688 0 -41 -38z m1474 -113 c0 -31 -3 -34
-31 -37 -28 -3 -32 0 -36 27 -5 37 3 47 39 45 25 -1 28 -5 28 -35z m-722 -471
c-2 -5 0 -8 6 -8 5 0 8 -11 6 -25 -1 -14 1 -25 4 -25 4 0 6 -17 6 -37 l-1 -38
-45 0 c-44 0 -44 0 -42 35 4 84 32 141 58 117 7 -7 11 -15 8 -19z m66 -11 c7
-13 14 -32 15 -42 2 -11 8 -19 13 -18 6 1 8 -11 4 -30 -5 -23 -13 -33 -29 -35
-17 -3 -22 2 -23 20 -1 29 -4 53 -14 101 -6 31 -5 36 7 32 9 -4 21 -16 27 -28z
m-147 1 c-7 -7 -12 -8 -12 -2 0 14 12 26 19 19 2 -3 -1 -11 -7 -17z m7 -21
c-9 -7 -16 -28 -17 -50 -2 -40 -8 -57 -21 -57 -12 0 -19 58 -9 68 5 5 11 18
13 28 2 11 4 19 4 19 1 1 11 1 24 2 19 2 20 0 6 -10z"/>
<path d="M410 983 c0 -10 -3 -14 -8 -8 -4 6 -13 10 -19 9 -7 -1 -25 -2 -39 -3
-16 -1 -23 -5 -18 -12 4 -7 1 -10 -7 -7 -16 5 -102 -79 -94 -92 3 -4 1 -10 -5
-12 -5 -1 -11 -12 -13 -23 -1 -11 -7 -26 -11 -34 -7 -11 -6 -12 5 -6 12 8 12
6 0 -8 -8 -10 -9 -17 -3 -17 6 0 11 -10 10 -22 -1 -36 1 -48 11 -48 6 0 10 31
9 68 0 54 4 77 23 109 24 42 83 83 121 83 33 0 70 0 95 0 12 0 29 -10 38 -22
8 -13 15 -19 15 -14 0 12 45 -37 55 -60 14 -31 20 -100 12 -134 -17 -66 -73
-119 -138 -127 -21 -3 -39 -11 -39 -17 0 -7 -4 -6 -9 2 -4 7 -22 14 -40 14
-23 1 -44 12 -70 37 -21 20 -40 43 -42 50 -3 8 -10 11 -17 7 -17 -10 -15 -26
3 -26 8 0 15 -7 15 -15 0 -8 5 -15 10 -15 6 0 10 -7 10 -16 0 -8 4 -13 9 -10
5 4 11 2 13 -3 1 -5 10 -11 18 -13 8 -2 18 -7 21 -12 4 -5 18 -8 33 -8 15 -1
23 -5 19 -11 -3 -5 -2 -7 4 -4 6 4 30 9 54 12 23 3 47 11 51 18 4 6 8 8 8 2 0
-5 7 -1 15 9 8 11 15 17 15 13 0 -11 33 23 57 58 25 35 31 64 19 84 -6 9 -5
12 2 7 20 -12 3 84 -21 118 -29 42 -79 86 -89 80 -4 -3 -8 0 -8 5 0 6 -9 11
-21 11 -11 0 -29 5 -40 10 -15 9 -19 7 -19 -7z"/>
<path d="M1112 983 c-18 -2 -30 -9 -27 -14 4 -5 -1 -9 -10 -9 -20 0 -85 -60
-88 -80 -2 -8 -7 -22 -12 -30 -13 -20 -13 -53 0 -62 5 -4 1 -8 -10 -8 -15 0
-17 -2 -6 -9 7 -5 11 -14 7 -19 -9 -15 20 -82 35 -82 6 0 8 -7 5 -16 -4 -11 1
-18 14 -21 11 -3 20 -9 20 -13 0 -8 64 -41 86 -44 7 -1 17 -5 20 -9 11 -10 24
-8 24 4 0 5 -4 7 -10 4 -6 -3 -7 1 -4 9 5 13 -1 16 -30 16 -20 0 -36 5 -36 10
0 6 -7 10 -15 10 -9 0 -18 7 -21 15 -4 8 -13 15 -21 15 -8 0 -11 5 -8 10 3 6
1 10 -4 10 -6 0 -11 6 -11 14 0 8 -5 16 -11 18 -5 2 -10 32 -10 67 -1 68 31
151 58 151 7 0 13 4 13 9 0 21 97 42 145 31 23 -5 36 -4 39 4 2 6 5 3 5 -6 1
-10 5 -18 10 -18 13 0 71 -56 71 -69 0 -6 4 -11 8 -11 8 0 11 -21 12 -90 0
-48 -4 -68 -18 -82 -16 -16 -15 -28 1 -28 23 0 44 70 41 132 -7 130 -117 211
-262 191z"/>
<path d="M390 925 c-7 -8 -11 -15 -9 -16 45 -10 71 4 44 23 -15 11 -21 10 -35
-7z"/>
<path d="M1146 924 c-3 -8 -6 -17 -6 -18 0 -4 50 1 55 6 3 3 -2 11 -12 19 -15
12 -16 12 -8 -1 7 -13 6 -13 -7 -2 -13 10 -17 10 -22 -4z"/>
<path d="M497 887 c-2 -6 4 -21 14 -31 17 -18 19 -18 19 -2 0 23 -26 50 -33
33z"/>
<path d="M1257 887 c-2 -6 4 -20 13 -30 15 -16 18 -16 23 -2 4 9 1 15 -9 15
-8 0 -13 4 -9 9 3 5 1 12 -4 15 -5 3 -11 0 -14 -7z"/>
<path d="M280 860 c-12 -16 -17 -30 -11 -30 12 0 55 40 44 40 -5 0 -1 5 7 10
13 8 13 10 -2 10 -9 0 -26 -13 -38 -30z"/>
<path d="M1053 870 c-3 -11 -9 -20 -14 -20 -5 0 -9 -8 -9 -17 0 -14 6 -12 29
12 28 29 31 45 9 45 -5 0 -12 -9 -15 -20z"/>
<path d="M393 873 c-7 -3 -13 -9 -13 -15 0 -6 7 -8 15 -4 8 3 15 1 15 -4 0 -6
5 -10 10 -10 6 0 10 8 10 18 0 18 -12 23 -37 15z"/>
<path d="M1146 863 c-9 -23 -7 -26 7 -14 9 7 17 7 24 0 7 -7 12 -6 16 5 4 9 3
16 -1 17 -4 0 -15 2 -24 4 -9 2 -19 -4 -22 -12z"/>
<path d="M320 810 c-7 -12 -8 -26 -3 -31 12 -12 33 25 23 41 -6 9 -11 7 -20
-10z"/>
<path d="M1085 820 c-3 -5 -3 -15 1 -22 4 -7 3 -8 -4 -4 -7 4 -12 1 -12 -9 0
-12 4 -14 19 -5 13 6 17 17 14 30 -6 23 -9 24 -18 10z"/>
<path d="M481 801 c-10 -6 -10 -10 -2 -16 9 -5 9 -10 1 -20 -7 -8 -8 -19 -4
-26 5 -8 9 -7 16 5 23 41 16 74 -11 57z"/>
<path d="M1237 804 c-4 -4 -2 -13 4 -21 7 -8 8 -13 1 -13 -5 0 -8 -9 -5 -21 3
-12 9 -17 15 -11 12 12 21 65 9 58 -5 -3 -11 -1 -13 5 -2 5 -7 7 -11 3z"/>
<path d="M543 783 c-7 -3 -13 -16 -13 -30 0 -15 5 -23 13 -20 6 2 12 8 12 13
0 5 4 14 8 21 9 14 -2 22 -20 16z"/>
<path d="M1295 759 c-4 -11 -4 -23 -2 -26 9 -8 24 5 30 27 7 27 -20 27 -28 -1z"/>
<path d="M257 759 c6 -6 9 -18 6 -25 -3 -8 1 -14 11 -14 10 0 16 9 16 25 0 19
-5 25 -22 25 -16 0 -19 -3 -11 -11z"/>
<path d="M1027 763 c-8 -13 -2 -48 9 -47 5 0 11 8 12 18 4 20 -13 43 -21 29z"/>
<path d="M1125 710 c-3 -5 3 -14 14 -19 26 -14 31 -14 31 3 0 16 -37 29 -45
16z"/>
<path d="M360 701 c0 -11 30 -19 48 -14 6 3 10 9 6 14 -7 12 -54 12 -54 0z"/>
<path d="M327 673 c-9 -14 29 -47 42 -38 17 10 13 28 -4 21 -8 -3 -18 2 -23
11 -6 9 -12 11 -15 6z"/>
<path d="M450 659 c-19 -8 -22 -12 -10 -19 14 -9 44 2 55 20 8 12 -12 12 -45
-1z"/>
<path d="M1097 649 c18 -18 25 -21 35 -11 15 15 11 19 -27 27 l-30 7 22 -23z"/>
<path d="M1230 661 c0 -5 -6 -8 -12 -7 -18 2 -22 -17 -4 -20 8 -1 22 7 32 17
16 17 16 19 1 19 -10 0 -17 -4 -17 -9z"/>
<path d="M1288 642 c-35 -35 -48 -42 -83 -42 -25 0 -35 -4 -32 -12 6 -18 66
-10 98 13 15 10 32 19 39 19 6 0 8 5 5 10 -3 6 -1 10 5 10 6 0 8 5 5 10 -8 13
-17 12 -37 -8z"/>
</g>
</svg>
